<svg width="218.2" height="98.3" viewBox="0 0 218.2 98.3" xmlns="http://www.w3.org/2000/svg"><g id="svgGroup" stroke-linecap="round" fill-rule="evenodd" font-size="9pt" stroke="none" stroke-width="0.25mm" fill="white" style="stroke:none;stroke-width:0.25mm;fill:white"><path d="M 47.7 19.5 L 16.7 63.3 Q 13 68.5 12.25 71.6 Q 11.5 74.7 13.4 76.05 Q 15.3 77.4 19.4 77.5 L 18.9 79.5 Q 16.1 79.3 13.1 79.25 Q 10.1 79.2 7.5 79.2 Q 5 79.2 3.3 79.25 Q 1.6 79.3 0 79.5 L 0.5 77.5 Q 1.9 77.2 3.4 76.25 Q 4.9 75.3 6.7 73.5 Q 8.5 71.7 10.5 68.8 L 53.6 8.2 L 54.35 8.2 L 55.1 8.2 L 59.1 71.1 Q 59.4 74.7 60.95 76.05 Q 62.5 77.4 64 77.5 L 63.6 79.5 Q 61.6 79.3 58.6 79.25 Q 55.6 79.2 52.7 79.2 Q 49.1 79.2 45.9 79.25 Q 42.7 79.3 40.7 79.5 L 41.1 77.5 Q 45.9 77.3 47.9 75.75 Q 49.9 74.2 49.7 69.1 L 47 19.7 L 47.7 19.5 Z M 81.2 73.7 L 82.9 62.9 Q 87.2 49.8 91.25 41.85 Q 95.3 33.9 99.35 30.3 Q 103.4 26.7 107.8 26.7 Q 112.5 26.7 115.35 30.2 Q 118.2 33.7 118.2 40.8 Q 118.2 45.3 116.95 50.7 Q 115.7 56.1 113.25 61.4 Q 110.8 66.7 107.25 71.15 Q 103.7 75.6 99.1 78.25 Q 94.5 80.9 88.9 80.9 Q 85.9 80.9 83.55 79.1 Q 81.2 77.3 80.4 73.9 L 81.2 71.9 Q 82.6 75.6 84.45 77.1 Q 86.3 78.6 88.8 78.6 Q 92.2 78.6 95.3 75.95 Q 98.4 73.3 101 68.9 Q 103.6 64.5 105.55 59.15 Q 107.5 53.8 108.55 48.45 Q 109.6 43.1 109.6 38.6 Q 109.6 34.2 108.35 32.05 Q 107.1 29.9 104.9 29.9 Q 102.3 29.9 99.05 33.55 Q 95.8 37.2 92.45 43.45 Q 89.1 49.7 86.15 57.5 Q 83.2 65.3 81.2 73.7 Z M 131.6 73.7 L 133.3 62.9 Q 137.6 49.8 141.65 41.85 Q 145.7 33.9 149.75 30.3 Q 153.8 26.7 158.2 26.7 Q 162.9 26.7 165.75 30.2 Q 168.6 33.7 168.6 40.8 Q 168.6 45.3 167.35 50.7 Q 166.1 56.1 163.65 61.4 Q 161.2 66.7 157.65 71.15 Q 154.1 75.6 149.5 78.25 Q 144.9 80.9 139.3 80.9 Q 136.3 80.9 133.95 79.1 Q 131.6 77.3 130.8 73.9 L 131.6 71.9 Q 133 75.6 134.85 77.1 Q 136.7 78.6 139.2 78.6 Q 142.6 78.6 145.7 75.95 Q 148.8 73.3 151.4 68.9 Q 154 64.5 155.95 59.15 Q 157.9 53.8 158.95 48.45 Q 160 43.1 160 38.6 Q 160 34.2 158.75 32.05 Q 157.5 29.9 155.3 29.9 Q 152.7 29.9 149.45 33.55 Q 146.2 37.2 142.85 43.45 Q 139.5 49.7 136.55 57.5 Q 133.6 65.3 131.6 73.7 Z M 178.8 93.6 Q 183.1 91.3 187.95 87.35 Q 192.8 83.4 198 76.7 Q 203.9 69.2 208.75 59.85 Q 213.6 50.5 215.5 41 Q 213.9 40.1 212.05 38.75 Q 210.2 37.4 209 35.55 Q 207.8 33.7 207.9 31.4 Q 208.1 29.1 209.5 27.9 Q 210.9 26.7 213 26.7 Q 215.7 26.7 216.95 28.75 Q 218.2 30.8 218.2 34.8 Q 218.2 39.9 216.5 45.75 Q 214.8 51.6 211.95 57.6 Q 209.1 63.6 205.6 69.15 Q 202.1 74.7 198.5 79.2 Q 196.9 81.2 194.1 84.2 Q 191.3 87.2 187.45 90.35 Q 183.6 93.5 178.8 95.8 Q 175.8 97.2 173.65 97.75 Q 171.5 98.3 170.1 98.3 Q 168.1 98.3 166.6 97.25 Q 165.1 96.2 165.1 94.2 Q 165.1 92 166.75 90.85 Q 168.4 89.7 170.5 89.7 Q 172.8 89.7 174.85 90.9 Q 176.9 92.1 178.8 93.6 Z M 101.7 0 L 81.6 73.3 Q 79.2 75.2 76.8 77.15 Q 74.4 79.1 72 81.1 L 70.5 80.4 Q 71.2 79 71.65 77.55 Q 72.1 76.1 72.4 74.6 L 89.9 12.8 Q 90.7 9.4 89.6 7.8 Q 88.5 6.2 83.6 6.2 L 84.1 4.1 Q 89.6 4 93.8 2.95 Q 98 1.9 101.7 0 Z M 152.1 0 L 132 73.3 Q 129.6 75.2 127.2 77.15 Q 124.8 79.1 122.4 81.1 L 120.9 80.4 Q 121.6 79 122.05 77.55 Q 122.5 76.1 122.8 74.6 L 140.3 12.8 Q 141.1 9.4 140 7.8 Q 138.9 6.2 134 6.2 L 134.5 4.1 Q 140 4 144.2 2.95 Q 148.4 1.9 152.1 0 Z M 195.3 35.9 L 200.7 75.5 L 194 82.8 L 186.4 36.8 Q 185.9 33.7 185.2 32.5 Q 184.5 31.3 183.2 31.3 Q 182.1 31.3 180.7 33.05 Q 179.3 34.8 177.3 40.5 L 176 44.2 L 174.1 44.2 L 176.6 36.9 Q 178.7 30.8 181.8 28.75 Q 184.9 26.7 188.1 26.7 Q 191.2 26.7 192.9 28.65 Q 194.6 30.6 195.3 35.9 Z M 22.9 52.7 L 24.7 50.7 L 53.9 50.7 L 53.1 52.7 L 22.9 52.7 Z" vector-effect="non-scaling-stroke"/></g></svg>
