<svg width="834.602" height="91.101" viewBox="0 0 834.602 91.101" xmlns="http://www.w3.org/2000/svg"><g id="svgGroup" stroke-linecap="round" fill-rule="evenodd" font-size="9pt" stroke="none" stroke-width="0.25mm" fill="white" style="stroke:none;stroke-width:0.25mm;fill:white"><path d="M 31.501 65.601 L 33.501 63.501 Q 30.101 60.801 26.151 58.951 Q 22.201 57.101 18.201 55.801 Q 13.101 54.001 8.951 51.201 Q 4.801 48.401 2.401 44.201 Q 0.001 40.001 0.001 34.201 Q 0.001 27.001 3.301 21.151 Q 6.601 15.301 14.151 11.851 Q 21.701 8.401 34.501 8.401 Q 47.201 8.401 53.901 11.951 Q 60.601 15.501 60.801 25.001 Q 62.201 21.201 61.701 17.901 Q 61.201 14.601 60.101 10.901 Q 67.301 10.801 72.101 10.651 Q 76.901 10.501 80.601 10.301 Q 84.301 10.101 88.101 10.101 Q 89.601 17.301 89.751 25.651 Q 89.901 34.001 88.601 42.701 Q 82.901 42.601 78.451 41.651 Q 74.001 40.701 70.201 38.801 Q 66.401 36.901 62.401 34.101 L 60.601 36.401 Q 64.401 39.201 68.401 41.151 Q 72.401 43.101 75.901 44.701 Q 81.101 47.001 84.701 49.801 Q 88.301 52.601 90.251 56.601 Q 92.201 60.601 92.201 66.601 Q 92.201 74.901 89.351 79.801 Q 86.501 84.701 81.801 87.051 Q 77.101 89.401 71.551 90.101 Q 66.001 90.801 60.501 90.801 Q 46.301 90.801 39.351 87.351 Q 32.401 83.901 32.201 75.101 Q 30.901 78.801 31.351 82.001 Q 31.801 85.201 32.901 88.301 Q 22.201 88.601 15.101 88.951 Q 8.001 89.301 2.201 89.201 Q 0.701 81.201 0.551 73.351 Q 0.401 65.501 1.701 56.701 Q 7.201 56.701 12.701 57.801 Q 18.201 58.901 23.101 60.851 Q 28.001 62.801 31.501 65.601 Z M 232.101 31.901 L 234.601 33.201 Q 237.701 27.901 242.051 23.951 Q 246.401 20.001 251.451 17.801 Q 256.501 15.601 261.601 15.601 Q 267.401 15.601 271.401 16.551 Q 275.401 17.501 278.101 20.001 Q 280.801 22.501 282.301 27.301 Q 283.701 31.401 283.601 35.651 Q 283.501 39.901 283.001 44.151 Q 282.501 48.401 282.501 52.601 Q 282.501 57.201 283.401 59.851 Q 284.301 62.501 285.751 63.801 Q 287.201 65.101 288.601 65.601 Q 289.501 69.001 289.651 73.551 Q 289.801 78.101 289.401 82.351 Q 289.001 86.601 288.001 89.301 Q 284.201 88.901 278.801 88.351 Q 273.401 87.801 265.201 87.801 Q 257.801 87.801 251.451 88.351 Q 245.101 88.901 241.501 89.301 Q 241.001 86.601 240.701 82.151 Q 240.401 77.701 240.551 72.901 Q 240.701 68.101 241.301 64.601 L 241.301 50.801 L 237.601 50.801 L 237.601 64.601 Q 238.301 68.101 238.451 72.901 Q 238.601 77.701 238.301 82.151 Q 238.001 86.601 237.301 89.301 Q 234.901 89.001 232.051 88.651 Q 229.201 88.301 225.101 88.051 Q 221.001 87.801 214.901 87.801 Q 207.401 87.801 201.451 88.301 Q 195.501 88.801 191.401 89.301 Q 190.401 86.601 189.951 82.351 Q 189.501 78.101 189.701 73.551 Q 189.901 69.001 190.701 65.601 Q 192.201 65.101 193.601 63.701 Q 195.001 62.301 195.901 58.751 Q 196.801 55.201 196.801 48.601 Q 196.801 43.001 196.151 39.651 Q 195.501 36.301 194.551 34.451 Q 193.601 32.601 192.551 31.801 Q 191.501 31.001 190.701 30.601 Q 189.701 27.301 189.351 23.001 Q 189.001 18.701 189.451 14.451 Q 189.901 10.201 191.101 7.301 Q 196.101 7.901 202.301 8.251 Q 208.501 8.601 216.101 8.601 Q 223.501 8.601 230.001 8.151 Q 236.501 7.701 240.701 7.301 Q 241.701 10.101 242.251 13.901 Q 242.801 17.701 242.001 20.301 Q 239.701 22.101 237.051 25.001 Q 234.401 27.901 232.101 31.901 Z M 343.001 64.601 L 343.001 50.801 L 339.301 50.801 L 339.301 64.601 Q 340.001 68.101 340.151 72.901 Q 340.301 77.701 340.001 82.151 Q 339.701 86.601 339.001 89.301 Q 336.601 89.001 333.751 88.651 Q 330.901 88.301 326.801 88.051 Q 322.701 87.801 316.601 87.801 Q 309.101 87.801 303.151 88.301 Q 297.201 88.801 293.101 89.301 Q 292.101 86.101 291.651 81.701 Q 291.201 77.301 291.401 72.901 Q 291.601 68.501 292.401 65.601 Q 294.701 65.001 296.601 62.451 Q 298.501 59.901 298.501 53.901 Q 298.501 48.801 297.451 45.951 Q 296.401 43.101 295.101 41.901 Q 293.801 40.701 292.801 40.601 Q 291.801 37.301 291.451 32.751 Q 291.101 28.201 291.551 23.701 Q 292.001 19.201 293.201 16.301 Q 297.901 16.901 303.801 17.251 Q 309.701 17.601 315.901 17.601 Q 322.101 17.601 328.101 17.451 Q 334.101 17.301 338.001 17.101 Q 336.701 18.501 335.251 21.851 Q 333.801 25.201 332.951 28.901 Q 332.101 32.601 332.401 35.401 Q 335.101 26.501 342.701 21.051 Q 350.301 15.601 363.401 15.601 Q 369.101 15.601 373.151 16.551 Q 377.201 17.501 379.851 20.001 Q 382.501 22.501 384.001 27.301 Q 385.401 31.401 385.301 35.651 Q 385.201 39.901 384.701 44.151 Q 384.201 48.401 384.201 52.601 Q 384.201 57.201 385.101 59.851 Q 386.001 62.501 387.451 63.801 Q 388.901 65.101 390.301 65.601 Q 391.201 68.501 391.351 72.901 Q 391.501 77.301 391.101 81.701 Q 390.701 86.101 389.701 89.301 Q 385.901 88.901 380.501 88.351 Q 375.101 87.801 366.901 87.801 Q 359.501 87.801 353.151 88.351 Q 346.801 88.901 343.201 89.301 Q 342.701 86.601 342.401 82.151 Q 342.101 77.701 342.251 72.901 Q 342.401 68.101 343.001 64.601 Z M 142.501 50.301 L 142.401 46.601 L 137.601 46.601 L 137.601 58.301 L 142.401 58.301 L 142.401 54.201 Q 163.801 53.201 187.101 54.201 Q 186.701 66.701 182.051 74.901 Q 177.401 83.101 167.601 87.101 Q 157.801 91.101 141.601 91.101 Q 124.601 91.101 114.051 86.251 Q 103.501 81.401 98.651 72.651 Q 93.801 63.901 93.801 52.201 Q 93.801 40.601 98.451 32.251 Q 103.101 23.901 111.501 19.351 Q 119.901 14.801 131.101 14.801 Q 142.001 14.801 148.051 18.251 Q 154.101 21.701 154.401 31.201 Q 155.501 27.701 155.251 24.151 Q 155.001 20.601 154.601 17.201 Q 157.901 17.201 162.151 17.101 Q 166.401 17.001 170.901 16.851 Q 175.401 16.701 179.401 16.601 Q 183.401 16.501 186.201 16.501 Q 186.801 19.201 187.151 23.351 Q 187.501 27.501 187.601 32.351 Q 187.701 37.201 187.401 41.901 Q 187.101 46.601 186.501 50.301 Q 183.601 50.701 179.101 50.951 Q 174.601 51.201 169.401 51.301 Q 164.201 51.401 159.001 51.301 Q 153.801 51.201 149.451 50.951 Q 145.101 50.701 142.501 50.301 Z M 600.901 28.201 L 603.101 26.301 Q 600.901 23.801 597.901 21.251 Q 594.901 18.701 589.601 15.901 Q 589.801 13.401 590.301 11.001 Q 590.801 8.601 591.501 7.101 Q 595.801 7.501 602.801 8.051 Q 609.801 8.601 617.101 8.601 Q 624.201 8.601 630.051 8.151 Q 635.901 7.701 640.101 7.301 Q 641.001 10.101 641.401 12.651 Q 641.801 15.201 641.801 17.801 Q 641.801 22.501 640.851 27.051 Q 639.901 31.601 638.951 36.851 Q 638.001 42.101 638.001 49.101 Q 638.001 55.401 638.901 58.801 Q 639.801 62.201 641.201 63.651 Q 642.601 65.101 644.101 65.701 Q 645.001 69.101 645.201 73.601 Q 645.401 78.101 645.001 82.351 Q 644.601 86.601 643.501 89.301 Q 639.501 88.801 634.901 88.401 Q 630.301 88.001 625.001 87.901 Q 619.901 87.801 616.401 87.901 Q 612.901 88.001 610.401 88.201 Q 607.901 88.401 605.501 88.601 Q 606.701 87.101 607.451 84.651 Q 608.201 82.201 608.451 79.501 Q 608.701 76.801 608.501 74.601 Q 607.401 78.801 604.501 82.551 Q 601.601 86.301 596.251 88.651 Q 590.901 91.001 582.301 91.001 Q 571.801 91.001 564.201 86.451 Q 556.601 81.901 552.501 73.301 Q 548.401 64.701 548.401 52.601 Q 548.401 35.101 555.851 25.551 Q 563.301 16.001 577.501 16.001 Q 584.301 16.001 590.301 19.551 Q 596.301 23.101 600.901 28.201 Z M 442.001 53.401 L 437.001 53.401 L 437.001 60.801 L 441.901 60.801 L 441.901 56.801 Q 463.101 55.801 486.701 56.801 Q 486.701 67.901 481.901 75.501 Q 477.101 83.101 466.801 87.051 Q 456.501 91.001 439.601 91.001 Q 423.301 91.001 413.051 86.451 Q 402.801 81.901 398.001 73.401 Q 393.201 64.901 393.201 52.901 Q 393.201 39.101 398.351 30.701 Q 403.501 22.301 414.401 18.451 Q 425.301 14.601 442.501 14.601 Q 455.301 14.601 465.351 17.301 Q 475.401 20.001 481.201 25.251 Q 487.001 30.501 487.001 38.201 Q 487.001 41.001 486.151 43.851 Q 485.301 46.701 482.701 49.001 Q 480.101 51.301 474.901 52.701 Q 469.701 54.101 461.001 54.101 Q 455.201 54.101 450.551 53.951 Q 445.901 53.801 442.001 53.401 Z M 695.901 53.401 L 690.901 53.401 L 690.901 60.801 L 695.801 60.801 L 695.801 56.801 Q 717.001 55.801 740.601 56.801 Q 740.601 67.901 735.801 75.501 Q 731.001 83.101 720.701 87.051 Q 710.401 91.001 693.501 91.001 Q 677.201 91.001 666.951 86.451 Q 656.701 81.901 651.901 73.401 Q 647.101 64.901 647.101 52.901 Q 647.101 39.101 652.251 30.701 Q 657.401 22.301 668.301 18.451 Q 679.201 14.601 696.401 14.601 Q 709.201 14.601 719.251 17.301 Q 729.301 20.001 735.101 25.251 Q 740.901 30.501 740.901 38.201 Q 740.901 41.001 740.051 43.851 Q 739.201 46.701 736.601 49.001 Q 734.001 51.301 728.801 52.701 Q 723.601 54.101 714.901 54.101 Q 709.101 54.101 704.451 53.951 Q 699.801 53.801 695.901 53.401 Z M 793.401 49.801 L 790.501 49.801 Q 790.401 55.401 792.551 59.101 Q 794.701 62.801 799.001 65.401 Q 799.701 67.501 799.951 70.701 Q 800.201 73.901 800.101 77.451 Q 800.001 81.001 799.501 84.151 Q 799.001 87.301 798.201 89.301 Q 794.901 89.001 789.801 88.651 Q 784.701 88.301 779.001 88.051 Q 773.301 87.801 768.101 87.801 Q 760.601 87.801 754.651 88.301 Q 748.701 88.801 744.601 89.301 Q 743.601 86.101 743.151 81.701 Q 742.701 77.301 742.901 72.901 Q 743.101 68.501 743.901 65.601 Q 746.201 65.001 748.101 62.451 Q 750.001 59.901 750.001 53.901 Q 750.001 48.801 748.951 45.951 Q 747.901 43.101 746.601 41.901 Q 745.301 40.701 744.301 40.601 Q 743.301 37.301 742.951 32.751 Q 742.601 28.201 743.051 23.701 Q 743.501 19.201 744.701 16.301 Q 749.401 16.901 755.301 17.251 Q 761.201 17.601 767.401 17.601 Q 773.601 17.601 779.601 17.451 Q 785.601 17.301 789.501 17.101 Q 788.501 18.201 787.401 20.351 Q 786.301 22.501 785.451 25.001 Q 784.601 27.501 784.201 29.751 Q 783.801 32.001 784.101 33.201 Q 785.801 28.401 789.401 24.201 Q 793.001 20.001 798.751 17.351 Q 804.501 14.701 812.401 14.701 Q 822.601 14.701 828.601 20.401 Q 834.601 26.101 834.601 38.301 Q 834.601 50.101 827.751 56.801 Q 820.901 63.501 809.301 63.501 Q 802.001 63.501 797.651 59.951 Q 793.301 56.401 793.401 49.801 Z M 491.301 89.301 Q 490.501 87.301 490.001 84.151 Q 489.501 81.001 489.451 77.501 Q 489.401 74.001 489.651 70.851 Q 489.901 67.701 490.601 65.701 Q 492.101 65.101 493.501 63.801 Q 494.901 62.501 495.851 59.901 Q 496.801 57.301 496.801 52.801 Q 496.801 48.401 495.651 45.951 Q 494.501 43.501 493.051 42.351 Q 491.601 41.201 490.601 40.701 Q 489.701 39.001 489.301 35.851 Q 488.901 32.701 488.951 29.001 Q 489.001 25.301 489.501 21.901 Q 490.001 18.501 491.001 16.301 Q 492.101 16.401 492.901 16.551 Q 493.701 16.701 494.701 16.801 Q 494.301 23.001 497.201 27.451 Q 500.101 31.901 505.151 33.801 Q 510.201 35.701 515.901 34.601 Q 511.101 34.401 507.051 32.051 Q 503.001 29.701 500.551 25.751 Q 498.101 21.801 498.101 16.901 Q 498.101 12.801 500.051 8.951 Q 502.001 5.101 506.601 2.551 Q 511.201 0.001 519.001 0.001 Q 531.501 0.001 537.251 6.251 Q 543.001 12.501 543.001 24.701 Q 543.001 30.401 542.051 35.151 Q 541.101 39.901 540.151 44.251 Q 539.201 48.601 539.201 53.101 Q 539.201 57.401 540.151 60.001 Q 541.101 62.601 542.551 63.851 Q 544.001 65.101 545.401 65.701 Q 546.101 67.701 546.351 70.851 Q 546.601 74.001 546.551 77.501 Q 546.501 81.001 546.001 84.151 Q 545.501 87.301 544.701 89.301 Q 541.901 89.001 537.451 88.651 Q 533.001 88.301 527.801 88.051 Q 522.601 87.801 517.401 87.801 Q 512.601 87.801 507.651 88.051 Q 502.701 88.301 498.401 88.651 Q 494.101 89.001 491.301 89.301 Z M 592.201 48.201 L 597.601 48.201 L 597.601 57.501 L 592.201 57.501 L 592.201 48.201 Z M 437.001 42.401 L 441.901 42.401 L 441.901 48.201 L 437.001 48.201 L 437.001 42.401 Z M 690.901 42.401 L 695.801 42.401 L 695.801 48.201 L 690.901 48.201 L 690.901 42.401 Z" vector-effect="non-scaling-stroke"/></g></svg>
